<svg width="400" height="400" viewBox="0 0 400 400" fill="none" xmlns="http://www.w3.org/2000/svg">
<path d="M15.9405 348L131.24 67.7587H163.267L277.766 348H228.123L138.446 121.005H155.26L64.7826 348H15.9405ZM72.7895 293.953V253.919H221.317V293.953H72.7895Z" fill="white"/>
<path d="M333.473 352.003C324.933 352.003 317.86 349.201 312.255 343.596C306.917 337.724 304.248 330.652 304.248 322.378C304.248 313.837 306.917 306.764 312.255 301.16C317.86 295.555 324.933 292.752 333.473 292.752C342.014 292.752 348.953 295.555 354.291 301.16C359.896 306.764 362.698 313.837 362.698 322.378C362.698 330.652 359.896 337.724 354.291 343.596C348.953 349.201 342.014 352.003 333.473 352.003Z" fill="#94C72C"/>
</svg>
